<?xml version="1.0" encoding="UTF-8"?> <svg xmlns="http://www.w3.org/2000/svg" width="182" height="32" viewBox="0 0 182 32" fill="none"> <g clip-path="url(#clip0_3825_66085)"> <path d="M40.5845 12.6745H36.8906V9.61133L47.6872 9.61133V12.6745H43.9934V22.2322H40.5845V12.6745Z" fill="#AFAFB5"></path> <path d="M49.4766 9.61133L59.3761 9.61133V12.5825H52.8485V14.4984H58.7587V17.2586H52.8485V19.2556H59.4658V22.2322H49.4766V9.61133Z" fill="#AFAFB5"></path> <path d="M65.0731 15.8135L61.0257 9.61133H64.9517L67.1311 13.1616L69.3263 9.61133L73.1627 9.61133L69.1153 15.7757L73.3368 22.2322H69.416L67.0572 18.4276L64.6879 22.2322H60.8516L65.0731 15.8135Z" fill="#AFAFB5"></path> <path d="M74.9531 9.61133H78.362V14.336H82.7419V9.61133L86.1508 9.61133V22.2322H82.7419V17.4371H78.362V22.2322H74.9531V9.61133Z" fill="#AFAFB5"></path> <path d="M88.2109 15.928C88.2147 15.0447 88.3911 14.171 88.7295 13.3587C89.0679 12.5464 89.5615 11.8119 90.1813 11.1985C90.8011 10.585 91.5344 10.1051 92.3379 9.78715C93.1415 9.46915 93.999 9.31947 94.8599 9.34695C98.6593 9.34695 101.472 12.2532 101.472 15.9118C101.466 16.7933 101.288 17.6647 100.949 18.4747C100.61 19.2848 100.117 20.0171 99.4977 20.6288C98.8787 21.2404 98.1468 21.7189 97.3449 22.0363C96.543 22.3536 95.6873 22.5033 94.8282 22.4766C91.0288 22.4766 88.2162 19.5703 88.2162 15.9118L88.2109 15.928ZM97.9944 15.9118C98.0113 15.473 97.9422 15.0352 97.7911 14.6243C97.64 14.2134 97.41 13.8379 97.1147 13.5199C96.8194 13.2019 96.4649 12.948 96.0721 12.7731C95.6794 12.5983 95.2564 12.5062 94.8282 12.5022C92.9602 12.5022 91.7148 14.0554 91.7148 15.9118C91.6971 16.3507 91.7657 16.7889 91.9165 17.2001C92.0674 17.6113 92.2974 17.9871 92.5928 18.3053C92.8882 18.6234 93.2431 18.8773 93.6362 19.0519C94.0293 19.2265 94.4526 19.3181 94.881 19.3214C96.7596 19.3214 98.0102 17.7735 98.0102 15.9118" fill="#AFAFB5"></path> <path d="M103.531 9.61328H106.94V14.338H111.32V9.61328L114.734 9.61328V22.2342H111.32V17.4391H106.94V22.2342H103.531V9.61328Z" fill="#AFAFB5"></path> <path d="M117.383 9.60938H120.755V16.71L125.525 9.60938L128.707 9.60937V22.2303H125.33V15.1243L120.565 22.2303H117.383V9.60938Z" fill="#AFAFB5"></path> <path d="M131.367 9.61328H134.776V14.7331L139.013 9.61328L143.061 9.61328L138.401 15.0362L143.219 22.2342H139.119L136.027 17.5473L134.776 18.9707V22.2342H131.367V9.61328Z" fill="#AFAFB5"></path> <path d="M143.255 15.9202C143.258 15.0371 143.434 14.1636 143.772 13.3513C144.11 12.539 144.603 11.8044 145.222 11.1909C145.842 10.5774 146.575 10.0975 147.378 9.77942C148.181 9.46136 149.038 9.31165 149.899 9.33914C153.698 9.33914 156.511 12.2454 156.511 15.904C156.505 16.7859 156.327 17.6578 155.988 18.4682C155.648 19.2786 155.154 20.0112 154.535 20.6229C153.915 21.2346 153.183 21.7131 152.38 22.0301C151.578 22.347 150.722 22.4962 149.862 22.4688C146.063 22.4688 143.25 19.5625 143.25 15.904L143.255 15.9202ZM153.023 15.904C153.04 15.4652 152.971 15.0274 152.82 14.6165C152.669 14.2056 152.439 13.8301 152.143 13.5121C151.848 13.1941 151.493 12.9401 151.101 12.7653C150.708 12.5905 150.285 12.4984 149.857 12.4944C147.994 12.4944 146.743 14.0476 146.743 15.904C146.726 16.3429 146.794 16.7811 146.945 17.1923C147.096 17.6035 147.326 17.9793 147.621 18.2975C147.917 18.6156 148.272 18.8695 148.665 19.0441C149.058 19.2186 149.481 19.3103 149.909 19.3135C151.793 19.3135 153.039 17.7657 153.039 15.904" fill="#AFAFB5"></path> <path d="M171.742 9.60742H175.151V13.5745H177.014C179.969 13.5745 182.133 15.0195 182.133 17.8662C182.133 20.5722 180.201 22.2337 177.193 22.2337H171.742V9.60742ZM176.929 19.295C178.053 19.295 178.724 18.7538 178.724 17.7796C178.724 16.892 178.053 16.3184 176.945 16.3184H175.151V19.295H176.929Z" fill="#AFAFB5"></path> <path d="M30.7282 25.3898L24.57 31.7056L1.80533 31.7056L-0.046875 29.806L-0.046875 6.45303L6.10604 0.142578L28.8708 0.142578L30.7282 2.04221L30.7282 25.3898Z" fill="#34343A"></path> <path d="M28.8708 0.142578L21.9527 7.24318V17.6018L16.28 9.61366L4.32771 9.61366V12.1249H7.8527L7.8527 21.6988L-0.046875 29.806L-0.046875 31.7056H1.80533L10.507 22.7812V12.1249H14.0267V22.2346H16.6494L16.6494 14.241L22.3221 22.2346H24.57L24.57 8.35807L30.7282 2.04221V0.142578L28.8708 0.142578Z" fill="#AFAFB5"></path> <path d="M159.519 9.60938V15.1459C159.519 16.4556 159.392 18.3498 158.548 19.0155C158.12 19.3331 157.613 19.5207 157.086 19.5567V22.5333H157.408C158.459 22.5094 159.49 22.2293 160.416 21.7161C162.474 20.3739 162.727 17.8303 162.727 14.9511V12.6726H165.65V22.2303H169.059V9.60937L159.519 9.60938Z" fill="#AFAFB5"></path> </g> <defs> <clipPath id="clip0_3825_66085"> <rect width="182" height="31.7642" fill="white" transform="translate(0 0.117188)"></rect> </clipPath> </defs> </svg> 