<?xml version="1.0" encoding="UTF-8"?> <svg xmlns="http://www.w3.org/2000/svg" width="28" height="20" viewBox="0 0 28 20" fill="none"><g clip-path="url(#clip0_3402_263)"><path d="M18 0H10C4.47715 0 0 4.47715 0 10C0 15.5228 4.47715 20 10 20H18C23.5228 20 28 15.5228 28 10C28 4.47715 23.5228 0 18 0Z" fill="#272727"></path><path d="M16.093 11.8571C16.2326 11.7143 16.5116 11.4286 16.9302 11.1429L17.3488 10.7143C16.7907 10.7143 16.2326 10.7143 15.814 10.7143H8V9.14286H15.814C16.3721 9.14286 16.7907 9.14286 17.3488 9.14286C16.9302 8.71429 16.5116 8.42857 16.2326 8L13.3023 5H15.5349L20 10L15.3953 15H13.1628L16.093 11.8571Z" fill="white"></path></g><defs><clipPath id="clip0_3402_263"><rect width="28" height="20" fill="white"></rect></clipPath></defs></svg> 