<?xml version="1.0" encoding="UTF-8"?> <svg xmlns="http://www.w3.org/2000/svg" width="76" height="47" viewBox="0 0 76 47" fill="none"><path d="M9.5395 12.272L10.6915 0.751999H16.1315L14.9155 12.272H23.6195L24.8995 0.751999H30.2755L29.0595 12.272H35.2035V17.328H28.4835L27.2035 29.424H33.3475V34.544H26.6275L25.4115 46H20.0355L21.2515 34.544H12.4835L11.2675 46H5.8275L7.1075 34.544H0.9635V29.424H7.6195L8.9635 17.328H2.8195V12.272H9.5395ZM12.9955 29.424H21.7635L23.1075 17.328H14.3395L12.9955 29.424Z" fill="#7820E6"></path><path d="M75.16 33.392C75.16 35.824 74.6907 37.8933 73.752 39.6C72.8133 41.264 71.576 42.608 70.04 43.632C68.5467 44.656 66.8187 45.4027 64.856 45.872C62.936 46.2987 60.952 46.512 58.904 46.512C56.856 46.512 54.8507 46.2987 52.888 45.872C50.968 45.4027 49.24 44.656 47.704 43.632C46.168 42.608 44.9307 41.264 43.992 39.6C43.096 37.8933 42.648 35.824 42.648 33.392C42.648 30.832 43.3093 28.6347 44.632 26.8C45.9547 24.9227 47.7893 23.536 50.136 22.64C48.856 22.0427 47.8107 21.3173 47 20.464C46.1893 19.6107 45.5493 18.7147 45.08 17.776C44.6533 16.7947 44.3547 15.8347 44.184 14.896C44.056 13.9147 43.992 13.0187 43.992 12.208C43.992 10.1173 44.4187 8.32533 45.272 6.832C46.1253 5.296 47.2347 4.03733 48.6 3.056C50.008 2.07467 51.608 1.37067 53.4 0.943996C55.192 0.474664 57.0267 0.239998 58.904 0.239998C60.7813 0.239998 62.616 0.474664 64.408 0.943996C66.2 1.37067 67.7787 2.07467 69.144 3.056C70.552 4.03733 71.6827 5.296 72.536 6.832C73.3893 8.32533 73.816 10.1173 73.816 12.208C73.816 13.0187 73.7307 13.9147 73.56 14.896C73.3893 15.8347 73.0693 16.7733 72.6 17.712C72.1733 18.608 71.5547 19.4827 70.744 20.336C69.9333 21.1467 68.888 21.8507 67.608 22.448C70.04 23.344 71.896 24.752 73.176 26.672C74.4987 28.592 75.16 30.832 75.16 33.392ZM58.904 5.296C57.624 5.296 56.4293 5.44533 55.32 5.744C54.2107 6.04266 53.2293 6.512 52.376 7.152C51.5653 7.74933 50.9253 8.53866 50.456 9.52C49.9867 10.4587 49.752 11.6107 49.752 12.976C49.752 14.384 50.008 15.5573 50.52 16.496C51.032 17.4347 51.7147 18.2027 52.568 18.8C53.4213 19.3973 54.3813 19.8453 55.448 20.144C56.5573 20.4427 57.7093 20.592 58.904 20.592C60.0987 20.592 61.2293 20.4427 62.296 20.144C63.4053 19.8453 64.3653 19.3973 65.176 18.8C66.0293 18.2027 66.712 17.4347 67.224 16.496C67.736 15.5573 68.0133 14.4693 68.056 13.232C68.056 11.7813 67.8 10.5653 67.288 9.584C66.8187 8.56 66.1573 7.728 65.304 7.088C64.4933 6.448 63.5333 6 62.424 5.744C61.3147 5.44533 60.1413 5.296 58.904 5.296ZM58.904 25.52C57.5813 25.52 56.28 25.6693 55 25.968C53.7627 26.224 52.632 26.672 51.608 27.312C50.6267 27.952 49.8373 28.784 49.24 29.808C48.6427 30.7893 48.344 32.0053 48.344 33.456C48.344 35.12 48.7067 36.464 49.432 37.488C50.1573 38.512 51.0533 39.3227 52.12 39.92C53.1867 40.5173 54.3173 40.9227 55.512 41.136C56.7493 41.3493 57.88 41.456 58.904 41.456C59.928 41.456 61.0373 41.3493 62.232 41.136C63.4693 40.9227 64.6 40.5173 65.624 39.92C66.6907 39.3227 67.5867 38.512 68.312 37.488C69.0373 36.464 69.4 35.12 69.4 33.456C69.4 32.0053 69.1013 30.7893 68.504 29.808C67.9067 28.784 67.1173 27.952 66.136 27.312C65.1547 26.672 64.024 26.224 62.744 25.968C61.5067 25.6693 60.2267 25.52 58.904 25.52Z" fill="#E5E5E5"></path></svg> 