<?xml version="1.0" encoding="UTF-8"?> <svg xmlns="http://www.w3.org/2000/svg" width="93" height="47" viewBox="0 0 93 47" fill="none"><path d="M14.7903 46H9.22225V9.712H0.00625002V5.936C1.28625 5.85066 2.45958 5.744 3.52625 5.616C4.59292 5.44533 5.57425 5.168 6.47025 4.784C7.36625 4.4 8.17692 3.888 8.90225 3.248C9.62758 2.608 10.2889 1.776 10.8863 0.751999H14.7903V46ZM60.6323 23.408C60.6323 26.3093 60.3336 29.1467 59.7363 31.92C59.1816 34.6933 58.2216 37.168 56.8563 39.344C55.4909 41.4773 53.6776 43.2053 51.4163 44.528C49.1549 45.8507 46.3389 46.512 42.9683 46.512C39.5549 46.512 36.7176 45.8507 34.4563 44.528C32.1949 43.2053 30.3816 41.4773 29.0163 39.344C27.6509 37.168 26.6909 34.736 26.1363 32.048C25.5816 29.36 25.3043 26.48 25.3043 23.408C25.3043 20.336 25.5816 17.456 26.1363 14.768C26.6909 12.0373 27.6509 9.60533 29.0163 7.472C30.3816 5.33867 32.1949 3.61067 34.4563 2.288C36.7176 0.922665 39.5549 0.239998 42.9683 0.239998C46.3389 0.239998 49.1549 0.901332 51.4163 2.224C53.6776 3.54666 55.4909 5.296 56.8563 7.472C58.2216 9.648 59.1816 12.1227 59.7363 14.896C60.3336 17.6693 60.6323 20.5067 60.6323 23.408ZM31.0003 23.408C31.0003 25.456 31.1496 27.5467 31.4483 29.68C31.7469 31.8133 32.3229 33.7547 33.1763 35.504C34.0296 37.2533 35.2243 38.6827 36.7603 39.792C38.3389 40.9013 40.4083 41.456 42.9683 41.456C45.4856 41.456 47.5123 40.9013 49.0483 39.792C50.6269 38.6827 51.8429 37.2533 52.6963 35.504C53.5496 33.7547 54.1256 31.8133 54.4243 29.68C54.7229 27.5467 54.8723 25.456 54.8723 23.408C54.8723 21.4027 54.7229 19.3333 54.4243 17.2C54.1256 15.0667 53.5496 13.1253 52.6963 11.376C51.8429 9.584 50.6269 8.13333 49.0483 7.024C47.5123 5.872 45.4856 5.296 42.9683 5.296C40.4083 5.296 38.3389 5.872 36.7603 7.024C35.2243 8.13333 34.0296 9.584 33.1763 11.376C32.3229 13.1253 31.7469 15.0667 31.4483 17.2C31.1496 19.3333 31.0003 21.4027 31.0003 23.408Z" fill="#E5E5E5"></path><path d="M68.9548 20.912H78.3628V10.992H83.3548V20.912H92.8268V25.84H83.3548V35.76H78.3628V25.84H68.9548V20.912Z" fill="#7820E6"></path></svg> 