<?xml version="1.0" encoding="UTF-8"?> <svg xmlns="http://www.w3.org/2000/svg" width="148" height="24" viewBox="0 0 148 24" fill="none"> <g clip-path="url(#clip0_3825_66115)"> <mask id="mask0_3825_66115" style="mask-type:luminance" maskUnits="userSpaceOnUse" x="0" y="0" width="148" height="24"> <path d="M148 0.5H0V23.5H148V0.5Z" fill="white"></path> </mask> <g mask="url(#mask0_3825_66115)"> <path d="M23.1233 0.5H0V5.09789H23.1233V0.5Z" fill="#AFAFB5"></path> <path d="M23.1233 9.69531H0V14.2932H23.1233V9.69531Z" fill="#8F8F99"></path> <path d="M23.1233 18.8906H0V23.4886H23.1233V18.8906Z" fill="#73737D"></path> <path d="M112.983 5.10161L116.636 14.2884H109.32L112.983 5.10161ZM109.44 0.501953L100.562 23.4915H105.864L107.6 18.8833L118.366 18.8878L120.102 23.4915H125.375L115.983 0.501953H109.44Z" fill="#AFAFB5"></path> <path d="M32.3672 0.501953V23.4915H51.3386V18.8965L37.0048 18.8886V14.2935H51.3386V9.68663H37.0048V5.10322L51.3386 5.08781V0.501953H32.3672Z" fill="#AFAFB5"></path> <path d="M128.578 23.4733H137.544H141.103C144.837 23.4733 148.001 20.9492 148.001 16.6495C148.001 14.8774 147.317 13.1386 145.183 11.9876C147.653 10.5584 148.001 9.0979 148.001 7.32579C148.001 3.58558 144.837 0.501953 141.103 0.501953H137.544H128.578V5.17733H140.887C142.144 5.17733 143.162 6.18983 143.162 7.43884C143.162 8.68785 142.144 9.70043 140.887 9.70043H138.429H130.884V14.2748H138.429H140.887C142.144 14.2748 143.162 15.2873 143.162 16.5363C143.162 17.7853 142.144 18.7979 140.887 18.7979H128.578V23.4733Z" fill="#AFAFB5"></path> <path d="M94.1615 0.501953H90.6031H81.4062V23.4915H86.033V14.2748H91.4889H94.1615C97.9873 14.2748 101.088 11.1917 101.088 7.38841C101.088 3.58512 97.9873 0.501953 94.1615 0.501953ZM93.946 9.70043H86.0266V5.17733H93.946C95.2026 5.17733 96.2206 6.18983 96.2206 7.43884C96.2206 8.68785 95.2026 9.70043 93.946 9.70043Z" fill="#AFAFB5"></path> <path d="M73.6296 11.9876C76.0996 10.5584 76.4473 9.0979 76.4473 7.32579C76.4473 3.58558 73.2833 0.501953 69.5491 0.501953C69.548 0.501953 69.5473 0.501953 69.5463 0.501953H56.9062V23.4733H69.7775C73.5118 23.4733 76.6758 20.9492 76.6758 16.6495C76.6758 14.8774 75.7634 13.1386 73.6296 11.9876ZM61.5269 5.17733H69.3309C70.5871 5.17733 71.6055 6.18983 71.6055 7.43884C71.6055 8.68785 70.5871 9.70043 69.3309 9.70043H66.9888H61.5269V5.17733ZM69.5621 18.7979H61.5269V14.2748H69.562C70.8184 14.2748 71.8367 15.2873 71.8367 16.5363C71.8367 17.7853 70.8184 18.7979 69.5621 18.7979Z" fill="#AFAFB5"></path> </g> </g> <defs> <clipPath id="clip0_3825_66115"> <rect width="148" height="23" fill="white" transform="translate(0 0.5)"></rect> </clipPath> </defs> </svg> 