<?xml version="1.0" encoding="UTF-8"?> <svg xmlns="http://www.w3.org/2000/svg" width="107" height="28" viewBox="0 0 107 28" fill="none"> <g clip-path="url(#clip0_3825_66078)"> <path d="M84.5077 8.32159L88.4508 5.44531H75.25V22.7215H88.4508V19.8452H79.0175V15.4226H87.0649V12.5463H79.0175V8.32159H84.5077Z" fill="#AFAFB5"></path> <path d="M65.2822 12.1789H60.6972V8.32159H68.015L71.9595 5.44531H56.9297V22.7215H64.7957C69.208 22.7215 71.7379 20.7423 71.7379 17.2936C71.7379 13.9958 69.4454 12.1789 65.2822 12.1789ZM64.6259 19.8438H60.6972V15.0552H64.6259C67.0163 15.0552 68.1301 15.8569 68.1301 17.4502C68.1301 19.0777 66.9515 19.8438 64.6259 19.8438Z" fill="#AFAFB5"></path> <path d="M99.1478 5.44531H91.9609V22.7201H95.727V17.8276H99.1478C103.734 17.8276 106.584 15.4411 106.584 11.6279C106.584 7.81469 103.734 5.44531 99.1478 5.44531M99.0643 14.9513H95.727V8.32159H99.0643C101.479 8.32159 102.806 9.49916 102.806 11.6364C102.806 13.7737 101.478 14.9513 99.0643 14.9513Z" fill="#AFAFB5"></path> <path d="M50.4637 18.9814C49.4654 19.5165 48.3468 19.7937 47.2114 19.7874C43.8152 19.7874 41.35 17.3881 41.35 14.0832C41.35 10.7784 43.8152 8.3862 47.2114 8.3862C48.439 8.36853 49.64 8.74084 50.6379 9.44843L53.3405 7.47775L53.162 7.32255C51.579 5.95133 49.4765 5.22656 47.0661 5.22656C44.4512 5.22656 42.0782 6.09799 40.3844 7.68279C38.6906 9.26759 37.7422 11.5174 37.7422 13.995C37.7422 16.4725 38.6776 18.7593 40.3757 20.4025C42.0739 22.0457 44.4455 22.957 47.0416 22.957C49.7572 22.957 52.1288 22.0201 53.7377 20.3157L51.2984 18.5372L50.4637 18.9814Z" fill="#AFAFB5"></path> <path d="M28.7867 13.9986C28.787 13.1434 28.71 12.29 28.5565 11.4484L25.4581 13.7067C25.4581 13.8035 25.4581 13.9018 25.4581 13.9915C25.4615 16.4417 24.6353 18.8225 23.1113 20.7538C21.5874 22.6851 19.4535 24.0556 17.0503 24.6467C14.647 25.2378 12.1129 25.0153 9.85242 24.0148C7.59191 23.0143 5.73525 21.2934 4.57876 19.1268C3.42227 16.9602 3.0326 14.4727 3.47194 12.0613C3.91128 9.64995 5.15431 7.45369 7.00265 5.82304C8.851 4.19238 11.1981 3.22132 13.6694 3.06483C16.1408 2.90834 18.5938 3.57544 20.6372 4.95967L23.4362 2.91779C20.8963 0.889804 17.7352 -0.223719 14.4715 -0.240052C11.2078 -0.256385 8.03546 0.825443 5.47498 2.82791C2.91451 4.83037 1.11801 7.63453 0.380284 10.7802C-0.357441 13.9259 0.00742685 17.2263 1.41502 20.1398C2.82261 23.0533 5.18931 25.4069 8.12675 26.8143C11.0642 28.2217 14.3979 28.5994 17.5809 27.8853C20.7638 27.1713 23.6069 25.4079 25.6436 22.8846C27.6803 20.3613 28.7897 17.2279 28.7896 13.9986H28.7867Z" fill="#AFAFB5"></path> <path d="M25.7802 5.29297C26.4644 6.1674 27.0439 7.1173 27.5071 8.12369L14.3927 17.6866L8.91406 14.2878V10.1997L14.3927 13.5972L25.7802 5.29297Z" fill="#AFAFB5"></path> </g> <defs> <clipPath id="clip0_3825_66078"> <rect width="107" height="28" fill="white"></rect> </clipPath> </defs> </svg> 