<?xml version="1.0" encoding="UTF-8"?> <svg xmlns="http://www.w3.org/2000/svg" width="199" height="33" viewBox="0 0 199 33" fill="none"><path d="M0.333984 0.732495V31.2217H6.62355V24.966H13.4651C15.4487 24.905 17.3798 24.3205 19.0575 23.273C21.1378 22.0752 22.8035 20.2849 23.8364 18.1365C24.824 16.1688 25.2268 13.9649 24.9984 11.7803C24.87 10.2577 24.4511 8.77293 23.7637 7.40424C22.6846 5.23582 20.9618 3.44396 18.8251 2.26772C17.0583 1.256 15.0568 0.712345 13.0148 0.689453L0.333984 0.732495ZM6.62355 18.7821V6.95945H11.3589C12.2888 6.93113 13.2192 7.0033 14.1333 7.17467C15.2098 7.38458 16.1988 7.90587 16.9748 8.67228C17.7506 9.4387 18.2785 10.4157 18.491 11.479C18.6715 12.228 18.6978 13.0052 18.5679 13.7644C18.4382 14.5237 18.1551 15.2492 17.7356 15.8982C17.3086 16.5641 16.7525 17.1403 16.0995 17.5932C15.4464 18.0464 14.7091 18.3675 13.9299 18.5382C13.4034 18.6369 12.8678 18.6802 12.3321 18.6673L6.62355 18.7821Z" fill="#B6B6B9"></path><path d="M143.572 31.7381C147.832 31.8503 151.963 30.2861 155.057 27.3896C158.15 24.493 159.952 20.5013 160.066 16.2927C160.179 12.084 158.596 8.00316 155.663 4.94782C152.73 1.89249 148.689 0.11296 144.429 0.00070407H143.978C139.751 -0.0385368 135.677 1.5639 132.634 4.46288C130.376 6.65243 128.821 9.45028 128.163 12.5073C127.505 15.5642 127.773 18.745 128.933 21.6526C130.093 24.5602 132.095 27.0657 134.688 28.8568C137.281 30.6478 140.35 31.645 143.513 31.7238L143.572 31.7381ZM137.18 9.21201C138.072 8.33688 139.134 7.64926 140.303 7.1906C141.471 6.73194 142.721 6.51176 143.978 6.54331C146.474 6.56227 148.862 7.55713 150.618 9.31026C152.373 11.0634 153.355 13.4321 153.348 15.8981C153.324 18.3428 152.329 20.6807 150.576 22.4069C148.823 24.1329 146.454 25.1088 143.978 25.1238C142.113 25.1096 140.294 24.5516 138.749 23.5201C137.203 22.4885 136.001 21.0292 135.292 19.3252C134.583 17.6211 134.399 15.7483 134.763 13.9416C135.128 12.1348 136.024 10.4745 137.34 9.16896" fill="#B6B6B9"></path><path d="M191.23 0.73179V24.9653H184.112V0.73179H177.706V24.9653H170.589V0.73179H164.227V31.221H197.563V3.75918C197.554 3.33427 197.457 2.9156 197.278 2.52915C197.099 2.14271 196.841 1.79678 196.521 1.51286C196.202 1.22892 195.825 1.01307 195.417 0.878703C195.009 0.744337 194.578 0.694329 194.149 0.73179H191.23Z" fill="#B6B6B9"></path><path d="M110.495 7.01675H126.299V0.689362H104.133V31.2216H110.495V7.01675Z" fill="#B6B6B9"></path><path d="M87.4879 15.9562C87.8801 15.4684 88.2723 14.9375 88.403 14.7365C89.6651 12.8223 90.148 10.5075 89.7546 8.25629C89.3613 6.00512 88.1209 3.98404 86.2823 2.59831C83.978 1.21901 81.3021 0.568205 78.6128 0.733099H61.4727V31.2223H78.6128C80.5011 31.2223 84.5392 30.591 86.2532 29.2997C88.0919 27.9138 89.3322 25.8928 89.7256 23.6416C90.1189 21.3905 89.6361 19.0757 88.374 17.1614C88.2432 16.9606 87.8075 16.401 87.4589 15.9562H87.4879ZM67.7622 6.93136H80.414C81.2527 6.9356 82.0561 7.26542 82.6509 7.84962C83.0321 8.24886 83.2894 8.74772 83.3923 9.28703C83.4953 9.82633 83.4395 10.3835 83.2315 10.8924C83.0236 11.4013 82.6723 11.8407 82.2192 12.1584C81.7662 12.4761 81.2304 12.6588 80.6754 12.6848H67.7622V6.93136ZM82.68 24.0484C82.3897 24.3435 82.0418 24.5771 81.6572 24.7351C81.2726 24.8929 80.8595 24.9717 80.443 24.9666H67.7913V19.2275H80.7045C81.2566 19.2558 81.7891 19.4393 82.2394 19.7561C82.6897 20.073 83.039 20.5102 83.2464 21.0165C83.4539 21.5227 83.5107 22.0769 83.4104 22.6139C83.3101 23.1509 83.0566 23.6487 82.68 24.0484Z" fill="#B6B6B9"></path><path d="M28.7031 3.7595C28.7113 3.33327 28.8083 2.91328 28.9883 2.52579C29.1681 2.1383 29.4271 1.79166 29.7488 1.50751C30.0706 1.22337 30.4482 1.00785 30.8581 0.874436C31.268 0.741017 31.7013 0.692566 32.1312 0.732116H35.0363V20.6469C35.0363 20.6469 49.7361 1.85124 50.7674 0.732116H56.8972V31.2213H50.6077V11.2204L35.0363 31.2213H28.7322L28.7031 3.7595Z" fill="#B6B6B9"></path></svg> 