<?xml version="1.0" encoding="UTF-8"?> <svg xmlns="http://www.w3.org/2000/svg" width="90" height="90" viewBox="0 0 90 90" fill="none"> <path d="M89.5 45C89.5 69.5767 69.5767 89.5 45 89.5C20.4233 89.5 0.5 69.5767 0.5 45C0.5 20.4233 20.4233 0.5 45 0.5C69.5767 0.5 89.5 20.4233 89.5 45Z" stroke="#393939"></path> <path d="M56.7269 33.2728L31.9202 43.0647C30.922 43.5207 30.5843 44.4338 31.679 44.9294L38.0429 46.9996L53.4302 37.2654C54.2704 36.6543 55.1305 36.8173 54.3904 37.4895L41.1748 49.7379L40.7597 54.9214C41.1442 55.7217 41.8482 55.7254 42.2973 55.3276L45.9536 51.7863L52.2156 56.5861C53.67 57.4675 54.4614 56.8987 54.7743 55.2833L58.8816 35.3755C59.3081 33.3871 58.5808 32.5109 56.7269 33.2728Z" fill="white"></path> </svg> 