<?xml version="1.0" encoding="UTF-8"?> <svg xmlns="http://www.w3.org/2000/svg" width="135" height="26" viewBox="0 0 135 26" fill="none"> <g clip-path="url(#clip0_3825_66135)"> <path d="M18.63 0.414062H10.68L0 25.5843H7.64998L9.56999 20.8821H19.56L21.36 25.5843H29.1L18.63 0.414062Z" fill="#AFAFB5"></path> <path d="M63.0043 0.0276667C60.6344 0.0276667 58.6544 1.71493 58.6544 3.7894V22.2383C58.6544 24.3127 60.6344 26 63.0043 26C65.3744 26 67.3544 24.3127 67.3544 22.2383V3.7894C67.3544 1.71493 65.3744 0.0276667 63.0043 0.0276667ZM51.6944 11.7277H42.4244V16.4297H48.0043C47.7944 17.8127 47.3744 18.5873 46.6844 19.2234C45.6644 20.1362 44.2544 20.6341 42.5144 20.6341C40.5344 20.6341 38.9743 20.0531 37.7744 18.9191C36.1844 17.3701 35.3744 15.434 35.3744 13.1383C35.3744 12.0319 35.6144 10.9532 36.0644 9.90213C37.2043 7.08087 39.3344 5.64253 42.3044 5.64253C43.7744 5.64253 45.0044 6.0574 46.0844 6.80427C46.8344 7.38513 47.4643 8.24253 48.0344 9.32127L54.5444 6.85953C53.4344 4.81273 52.1144 3.2638 50.5544 2.21273C48.3644 0.7468 45.7544 0 42.6043 0C37.9244 0 34.2944 1.383 31.6544 4.14893C29.4044 6.583 28.2344 9.5702 28.2344 13.1106C28.2344 16.3469 29.2244 19.0851 31.1744 21.4085C33.7844 24.4511 37.5044 26 42.3944 26C43.6244 26 44.7944 25.8893 45.8744 25.668C47.4344 25.3362 48.8744 24.8107 50.1344 24.0362C52.4144 22.6808 54.0344 20.6893 55.0243 18.1724C55.6544 16.4851 55.9843 14.3553 55.9843 11.7L51.6944 11.7277ZM124.534 0.414867H116.584L105.904 25.5851H113.554L115.474 20.8831H125.464L127.264 25.5851H135.004L124.534 0.414867ZM100.444 0.414867H93.1244L87.3344 13.4702L81.6944 0.414867H74.5244L69.7844 25.5851H77.0144L79.4144 11.1191L85.6843 25.5851H88.5944L95.3144 11.1468L97.3544 25.5851H104.584L100.444 0.414867Z" fill="#AFAFB5"></path> </g> <defs> <clipPath id="clip0_3825_66135"> <rect width="135" height="26" fill="white"></rect> </clipPath> </defs> </svg> 