<?xml version="1.0" encoding="UTF-8"?> <svg xmlns="http://www.w3.org/2000/svg" width="90" height="90" viewBox="0 0 90 90" fill="none"> <path d="M89.5 45C89.5 69.5767 69.5767 89.5 45 89.5C20.4233 89.5 0.5 69.5767 0.5 45C0.5 20.4233 20.4233 0.5 45 0.5C69.5767 0.5 89.5 20.4233 89.5 45Z" stroke="#393939"></path> <path d="M55.5 34H34.5C33.572 34.001 32.6824 34.3701 32.0262 35.0262C31.3701 35.6824 31.001 36.572 31 37.5V52.5C31.001 53.428 31.3701 54.3176 32.0262 54.9738C32.6824 55.6299 33.572 55.999 34.5 56H55.5C56.428 55.999 57.3176 55.6299 57.9738 54.9738C58.6299 54.3176 58.999 53.428 59 52.5V37.5C58.999 36.572 58.6299 35.6824 57.9738 35.0262C57.3176 34.3701 56.428 34.001 55.5 34ZM54.6138 39.7894L45.6138 46.7894C45.4382 46.9258 45.2223 46.9999 45 46.9999C44.7777 46.9999 44.5618 46.9258 44.3862 46.7894L35.3863 39.7894C35.2805 39.7095 35.1917 39.6094 35.125 39.495C35.0582 39.3805 35.0149 39.2539 34.9975 39.1225C34.9801 38.9912 34.989 38.8577 35.0237 38.7298C35.0584 38.6019 35.1181 38.4822 35.1994 38.3776C35.2808 38.2729 35.3821 38.1855 35.4975 38.1204C35.6129 38.0553 35.7401 38.0138 35.8717 37.9983C36.0033 37.9827 36.1366 37.9935 36.264 38.03C36.3914 38.0664 36.5103 38.1278 36.6137 38.2106L45 44.7331L53.3862 38.2106C53.596 38.0523 53.8596 37.9828 54.1201 38.0173C54.3806 38.0517 54.617 38.1874 54.7783 38.3948C54.9396 38.6023 55.0128 38.8649 54.982 39.1259C54.9512 39.3868 54.8189 39.6252 54.6138 39.7894Z" fill="white"></path> </svg> 