<?xml version="1.0" encoding="UTF-8"?> <svg xmlns="http://www.w3.org/2000/svg" width="249" height="30" viewBox="0 0 249 30" fill="none"><g data-figma-bg-blur-radius="58.9"><rect width="249" height="30" rx="15" fill="#272727"></rect><g clip-path="url(#clip1_1689_3274)"><path fill-rule="evenodd" clip-rule="evenodd" d="M12 17.4159L17.6206 8L26 13.0671L20.0361 22H13.6565L12 17.4159ZM14.9205 19.0591C14.9205 19.6442 15.4511 20.1181 16.1062 20.1181C16.7613 20.1181 17.2913 19.6442 17.2913 19.0591C17.2913 18.4735 16.761 17.9994 16.1062 17.9994C15.4511 17.9994 14.9205 18.4735 14.9205 19.0591Z" fill="white"></path></g><path d="M31.722 10.2L33.598 18.11H33.668L35.572 10.2H37.392L39.31 18.11H39.38L41.242 10.2H42.81L40.318 20H38.372L36.51 12.188H36.468L34.592 20H32.66L30.168 10.2H31.722ZM46.4132 20.14C45.7225 20.14 45.1158 19.9907 44.5932 19.692C44.0798 19.3933 43.6785 18.964 43.3892 18.404C43.1092 17.8347 42.9692 17.144 42.9692 16.332C42.9692 15.5293 43.1092 14.8433 43.3892 14.274C43.6785 13.7047 44.0798 13.2753 44.5932 12.986C45.1158 12.6873 45.7225 12.538 46.4132 12.538C47.1038 12.538 47.7058 12.6873 48.2192 12.986C48.7418 13.2753 49.1478 13.7047 49.4372 14.274C49.7265 14.8433 49.8712 15.5293 49.8712 16.332C49.8712 17.144 49.7265 17.8347 49.4372 18.404C49.1478 18.964 48.7418 19.3933 48.2192 19.692C47.7058 19.9907 47.1038 20.14 46.4132 20.14ZM46.4132 18.908C46.8238 18.908 47.1878 18.81 47.5052 18.614C47.8225 18.418 48.0698 18.1287 48.2472 17.746C48.4245 17.354 48.5132 16.8827 48.5132 16.332C48.5132 15.7907 48.4245 15.324 48.2472 14.932C48.0698 14.54 47.8225 14.2507 47.5052 14.064C47.1878 13.868 46.8238 13.77 46.4132 13.77C46.0118 13.77 45.6525 13.868 45.3352 14.064C45.0178 14.2507 44.7658 14.54 44.5792 14.932C44.4018 15.324 44.3132 15.7907 44.3132 16.332C44.3132 16.8827 44.4018 17.354 44.5792 17.746C44.7658 18.1287 45.0178 18.418 45.3352 18.614C45.6525 18.81 46.0118 18.908 46.4132 18.908ZM51.0793 12.678H52.1993L52.3533 13.602H52.4233C52.6286 13.2753 52.8853 13.042 53.1933 12.902C53.5106 12.7527 53.8839 12.678 54.3133 12.678H55.1393V13.952H54.3693C53.9866 13.952 53.6506 14.0313 53.3613 14.19C53.0719 14.3487 52.8433 14.5633 52.6753 14.834C52.5073 15.1047 52.4233 15.4173 52.4233 15.772V20H51.0793V12.678ZM57.3822 10.2V16.052L60.5882 12.678H62.2402L58.8522 16.262L62.4502 20H60.7982L57.3822 16.472V20H56.0382V10.2H57.3822ZM65.1939 20.14C64.6433 20.14 64.1579 20.0467 63.7379 19.86C63.3273 19.6733 62.9913 19.4167 62.7299 19.09C62.4779 18.7633 62.3099 18.39 62.2259 17.97H63.6679C63.7519 18.2593 63.9293 18.488 64.1999 18.656C64.4799 18.824 64.8113 18.908 65.1939 18.908C65.7166 18.908 66.1086 18.824 66.3699 18.656C66.6406 18.4787 66.7759 18.25 66.7759 17.97C66.7759 17.7553 66.7059 17.5873 66.5659 17.466C66.4259 17.3353 66.2439 17.2373 66.0199 17.172C65.8053 17.0973 65.5113 17.0227 65.1379 16.948C64.5873 16.8267 64.1299 16.7007 63.7659 16.57C63.4113 16.43 63.1033 16.206 62.8419 15.898C62.5899 15.59 62.4639 15.17 62.4639 14.638C62.4639 14.2553 62.5713 13.9053 62.7859 13.588C63.0006 13.2613 63.3133 13.0047 63.7239 12.818C64.1439 12.6313 64.6339 12.538 65.1939 12.538C65.9593 12.538 66.5893 12.7153 67.0839 13.07C67.5879 13.4153 67.9053 13.896 68.0359 14.512H66.5939C66.5286 14.372 66.4353 14.246 66.3139 14.134C66.2019 14.022 66.0526 13.9333 65.8659 13.868C65.6793 13.8027 65.4553 13.77 65.1939 13.77C64.7459 13.77 64.4053 13.8493 64.1719 14.008C63.9479 14.1573 63.8359 14.3673 63.8359 14.638C63.8359 14.862 63.9059 15.0393 64.0459 15.17C64.1953 15.3007 64.3773 15.4033 64.5919 15.478C64.8159 15.5527 65.1239 15.6367 65.5159 15.73C66.0666 15.8513 66.5146 15.9773 66.8599 16.108C67.2146 16.2387 67.5179 16.4533 67.7699 16.752C68.0219 17.0507 68.1479 17.4567 68.1479 17.97C68.1479 18.362 68.0359 18.726 67.8119 19.062C67.5973 19.3887 67.2659 19.65 66.8179 19.846C66.3699 20.042 65.8286 20.14 65.1939 20.14ZM70.3389 12.678L70.4929 13.602H70.5629C70.8149 13.2753 71.1322 13.0187 71.5149 12.832C71.8975 12.636 72.3455 12.538 72.8589 12.538C73.4749 12.538 74.0209 12.6873 74.4969 12.986C74.9729 13.2753 75.3462 13.7047 75.6169 14.274C75.8875 14.8433 76.0229 15.5293 76.0229 16.332C76.0229 17.1347 75.8875 17.8253 75.6169 18.404C75.3462 18.9733 74.9729 19.4073 74.4969 19.706C74.0209 19.9953 73.4749 20.14 72.8589 20.14C72.3549 20.14 71.9162 20.0467 71.5429 19.86C71.1695 19.6733 70.8662 19.4307 70.6329 19.132H70.5629V22.8H69.2189V12.678H70.3389ZM72.6209 18.908C73.0222 18.908 73.3769 18.81 73.6849 18.614C73.9929 18.418 74.2355 18.1287 74.4129 17.746C74.5902 17.3633 74.6789 16.892 74.6789 16.332C74.6789 15.7813 74.5902 15.3147 74.4129 14.932C74.2355 14.54 73.9929 14.2507 73.6849 14.064C73.3769 13.868 73.0222 13.77 72.6209 13.77C72.2195 13.77 71.8649 13.868 71.5569 14.064C71.2489 14.2507 71.0062 14.54 70.8289 14.932C70.6515 15.3147 70.5629 15.7813 70.5629 16.332C70.5629 16.892 70.6515 17.3633 70.8289 17.746C71.0062 18.1287 71.2489 18.418 71.5569 18.614C71.8649 18.81 72.2195 18.908 72.6209 18.908ZM79.507 18.95C79.9084 18.95 80.2584 18.8707 80.557 18.712C80.865 18.5533 81.0984 18.3387 81.257 18.068C81.425 17.788 81.509 17.4753 81.509 17.13V16.738H79.605C79.129 16.738 78.765 16.836 78.513 17.032C78.2704 17.228 78.149 17.494 78.149 17.83C78.149 18.166 78.2657 18.4367 78.499 18.642C78.7417 18.8473 79.0777 18.95 79.507 18.95ZM79.339 20.14C78.835 20.14 78.387 20.042 77.995 19.846C77.6124 19.65 77.3184 19.3793 77.113 19.034C76.9077 18.6887 76.805 18.3013 76.805 17.872C76.805 17.4427 76.9124 17.06 77.127 16.724C77.3417 16.3787 77.6544 16.108 78.065 15.912C78.485 15.716 78.989 15.618 79.577 15.618H81.509V15.17C81.509 14.7313 81.3644 14.386 81.075 14.134C80.7857 13.8727 80.403 13.742 79.927 13.742C79.5444 13.742 79.2224 13.826 78.961 13.994C78.709 14.162 78.5317 14.3813 78.429 14.652H77.029C77.197 13.9987 77.533 13.4853 78.037 13.112C78.541 12.7293 79.1804 12.538 79.955 12.538C80.8604 12.538 81.5697 12.776 82.083 13.252C82.6057 13.728 82.867 14.3767 82.867 15.198V20H81.747L81.579 19.062H81.509C81.3504 19.342 81.075 19.594 80.683 19.818C80.3004 20.0327 79.8524 20.14 79.339 20.14ZM87.4365 20.14C86.7459 20.14 86.1392 19.9907 85.6165 19.692C85.1032 19.3933 84.7019 18.964 84.4125 18.404C84.1325 17.8347 83.9925 17.144 83.9925 16.332C83.9925 15.5293 84.1325 14.8433 84.4125 14.274C84.7019 13.7047 85.1032 13.2753 85.6165 12.986C86.1392 12.6873 86.7459 12.538 87.4365 12.538C87.9685 12.538 88.4445 12.6313 88.8645 12.818C89.2939 12.9953 89.6532 13.252 89.9425 13.588C90.2319 13.9147 90.4465 14.3113 90.5865 14.778H89.1865C88.9999 14.442 88.7619 14.19 88.4725 14.022C88.1832 13.854 87.8379 13.77 87.4365 13.77C87.0259 13.77 86.6619 13.868 86.3445 14.064C86.0272 14.26 85.7799 14.554 85.6025 14.946C85.4252 15.3287 85.3365 15.7907 85.3365 16.332C85.3365 16.8827 85.4252 17.354 85.6025 17.746C85.7799 18.1287 86.0272 18.418 86.3445 18.614C86.6619 18.81 87.0259 18.908 87.4365 18.908C87.8379 18.908 88.1832 18.824 88.4725 18.656C88.7619 18.4787 88.9999 18.2267 89.1865 17.9H90.5865C90.4465 18.3573 90.2319 18.754 89.9425 19.09C89.6532 19.426 89.2939 19.6873 88.8645 19.874C88.4445 20.0513 87.9685 20.14 87.4365 20.14ZM94.7728 20.14C94.0821 20.14 93.4754 19.9907 92.9528 19.692C92.4394 19.3933 92.0381 18.964 91.7488 18.404C91.4688 17.8347 91.3288 17.144 91.3288 16.332C91.3288 15.5387 91.4688 14.8573 91.7488 14.288C92.0381 13.7093 92.4394 13.2753 92.9528 12.986C93.4661 12.6873 94.0588 12.538 94.7308 12.538C95.4308 12.538 96.0374 12.706 96.5508 13.042C97.0641 13.3687 97.4514 13.798 97.7128 14.33C97.9834 14.862 98.1188 15.422 98.1188 16.01C98.1188 16.15 98.1094 16.2853 98.0908 16.416C98.0814 16.5467 98.0674 16.654 98.0488 16.738H92.7008C92.7288 17.1953 92.8314 17.5873 93.0088 17.914C93.1954 18.2313 93.4381 18.4787 93.7368 18.656C94.0354 18.824 94.3808 18.908 94.7728 18.908C95.1741 18.908 95.5101 18.8287 95.7808 18.67C96.0514 18.5113 96.2848 18.278 96.4808 17.97H97.9228C97.7734 18.418 97.5541 18.8053 97.2648 19.132C96.9848 19.4493 96.6301 19.6967 96.2008 19.874C95.7808 20.0513 95.3048 20.14 94.7728 20.14ZM96.7328 15.632C96.6861 15.2587 96.5741 14.932 96.3968 14.652C96.2194 14.3627 95.9861 14.1433 95.6968 13.994C95.4168 13.8447 95.0948 13.77 94.7308 13.77C94.1801 13.77 93.7228 13.938 93.3588 14.274C93.0041 14.6007 92.7848 15.0533 92.7008 15.632H96.7328ZM105.753 10.2C106.64 10.2 107.414 10.3913 108.077 10.774C108.749 11.1473 109.267 11.7027 109.631 12.44C109.995 13.1773 110.177 14.064 110.177 15.1C110.177 16.136 109.995 17.0227 109.631 17.76C109.267 18.4973 108.749 19.0573 108.077 19.44C107.414 19.8133 106.64 20 105.753 20H102.295V10.2H105.753ZM105.725 18.67C106.304 18.67 106.812 18.5347 107.251 18.264C107.699 17.9933 108.049 17.592 108.301 17.06C108.562 16.5187 108.693 15.8653 108.693 15.1C108.693 14.3347 108.562 13.686 108.301 13.154C108.049 12.6127 107.699 12.2067 107.251 11.936C106.812 11.6653 106.304 11.53 105.725 11.53H103.793V18.67H105.725ZM112.803 12.678V20H111.459V12.678H112.803ZM112.131 11.712C111.888 11.712 111.683 11.6327 111.515 11.474C111.347 11.306 111.263 11.1007 111.263 10.858C111.263 10.6153 111.347 10.41 111.515 10.242C111.683 10.074 111.888 9.99 112.131 9.99C112.374 9.99 112.579 10.074 112.747 10.242C112.915 10.41 112.999 10.6153 112.999 10.858C112.999 11.0913 112.915 11.292 112.747 11.46C112.579 11.628 112.374 11.712 112.131 11.712ZM117.46 22.8C116.89 22.8 116.382 22.7113 115.934 22.534C115.495 22.3567 115.122 22.0953 114.814 21.75C114.515 21.414 114.296 21.0033 114.156 20.518H115.57C115.71 20.854 115.938 21.1107 116.256 21.288C116.582 21.4747 116.984 21.568 117.46 21.568C118.057 21.568 118.533 21.4187 118.888 21.12C119.242 20.8213 119.42 20.3873 119.42 19.818V18.628H119.35C119.126 18.908 118.827 19.1367 118.454 19.314C118.09 19.4913 117.66 19.58 117.166 19.58C116.55 19.58 116.004 19.4447 115.528 19.174C115.052 18.894 114.678 18.488 114.408 17.956C114.146 17.424 114.016 16.7893 114.016 16.052C114.016 15.3147 114.146 14.6847 114.408 14.162C114.678 13.63 115.052 13.2287 115.528 12.958C116.004 12.678 116.55 12.538 117.166 12.538C117.642 12.538 118.076 12.6313 118.468 12.818C118.86 13.0047 119.177 13.252 119.42 13.56H119.49L119.658 12.678H120.778V19.818C120.778 20.7607 120.484 21.4933 119.896 22.016C119.317 22.5387 118.505 22.8 117.46 22.8ZM117.39 18.348C117.8 18.348 118.155 18.2593 118.454 18.082C118.762 17.8953 119 17.6293 119.168 17.284C119.336 16.9387 119.42 16.528 119.42 16.052C119.42 15.5853 119.336 15.1793 119.168 14.834C119 14.4887 118.762 14.2273 118.454 14.05C118.155 13.8633 117.8 13.77 117.39 13.77C116.988 13.77 116.634 13.8633 116.326 14.05C116.018 14.2273 115.78 14.4887 115.612 14.834C115.444 15.1793 115.36 15.5853 115.36 16.052C115.36 16.528 115.444 16.9387 115.612 17.284C115.78 17.6293 116.018 17.8953 116.326 18.082C116.634 18.2593 116.988 18.348 117.39 18.348ZM123.675 12.678V20H122.331V12.678H123.675ZM123.003 11.712C122.76 11.712 122.555 11.6327 122.387 11.474C122.219 11.306 122.135 11.1007 122.135 10.858C122.135 10.6153 122.219 10.41 122.387 10.242C122.555 10.074 122.76 9.99 123.003 9.99C123.245 9.99 123.451 10.074 123.619 10.242C123.787 10.41 123.871 10.6153 123.871 10.858C123.871 11.0913 123.787 11.292 123.619 11.46C123.451 11.628 123.245 11.712 123.003 11.712ZM127.757 20C127.151 20 126.665 19.8227 126.301 19.468C125.947 19.1133 125.769 18.6467 125.769 18.068V13.938H124.621V12.678H125.769L125.951 10.718H127.127V12.678H128.961V13.938H127.127V17.942C127.127 18.1753 127.202 18.3667 127.351 18.516C127.501 18.6653 127.687 18.74 127.911 18.74H128.961V20H127.757ZM132.422 18.95C132.823 18.95 133.173 18.8707 133.472 18.712C133.78 18.5533 134.013 18.3387 134.172 18.068C134.34 17.788 134.424 17.4753 134.424 17.13V16.738H132.52C132.044 16.738 131.68 16.836 131.428 17.032C131.185 17.228 131.064 17.494 131.064 17.83C131.064 18.166 131.181 18.4367 131.414 18.642C131.657 18.8473 131.993 18.95 132.422 18.95ZM132.254 20.14C131.75 20.14 131.302 20.042 130.91 19.846C130.527 19.65 130.233 19.3793 130.028 19.034C129.823 18.6887 129.72 18.3013 129.72 17.872C129.72 17.4427 129.827 17.06 130.042 16.724C130.257 16.3787 130.569 16.108 130.98 15.912C131.4 15.716 131.904 15.618 132.492 15.618H134.424V15.17C134.424 14.7313 134.279 14.386 133.99 14.134C133.701 13.8727 133.318 13.742 132.842 13.742C132.459 13.742 132.137 13.826 131.876 13.994C131.624 14.162 131.447 14.3813 131.344 14.652H129.944C130.112 13.9987 130.448 13.4853 130.952 13.112C131.456 12.7293 132.095 12.538 132.87 12.538C133.775 12.538 134.485 12.776 134.998 13.252C135.521 13.728 135.782 14.3767 135.782 15.198V20H134.662L134.494 19.062H134.424C134.265 19.342 133.99 19.594 133.598 19.818C133.215 20.0327 132.767 20.14 132.254 20.14ZM138.671 10.2V20H137.327V10.2H138.671ZM147.098 10.2L150.738 20H149.226L148.414 17.76H144.046L143.234 20H141.708L145.348 10.2H147.098ZM146.258 11.88H146.188L144.55 16.43H147.896L146.258 11.88ZM151.623 12.678L153.107 18.25H153.177L154.675 12.678H156.145L157.643 18.25H157.713L159.197 12.678H160.527L158.497 20H156.887L155.445 14.652H155.375L153.933 20H152.267L150.237 12.678H151.623ZM163.552 18.95C163.954 18.95 164.304 18.8707 164.602 18.712C164.91 18.5533 165.144 18.3387 165.302 18.068C165.47 17.788 165.554 17.4753 165.554 17.13V16.738H163.65C163.174 16.738 162.81 16.836 162.558 17.032C162.316 17.228 162.194 17.494 162.194 17.83C162.194 18.166 162.311 18.4367 162.544 18.642C162.787 18.8473 163.123 18.95 163.552 18.95ZM163.384 20.14C162.88 20.14 162.432 20.042 162.04 19.846C161.658 19.65 161.364 19.3793 161.158 19.034C160.953 18.6887 160.85 18.3013 160.85 17.872C160.85 17.4427 160.958 17.06 161.172 16.724C161.387 16.3787 161.7 16.108 162.11 15.912C162.53 15.716 163.034 15.618 163.622 15.618H165.554V15.17C165.554 14.7313 165.41 14.386 165.12 14.134C164.831 13.8727 164.448 13.742 163.972 13.742C163.59 13.742 163.268 13.826 163.006 13.994C162.754 14.162 162.577 14.3813 162.474 14.652H161.074C161.242 13.9987 161.578 13.4853 162.082 13.112C162.586 12.7293 163.226 12.538 164 12.538C164.906 12.538 165.615 12.776 166.128 13.252C166.651 13.728 166.912 14.3767 166.912 15.198V20H165.792L165.624 19.062H165.554C165.396 19.342 165.12 19.594 164.728 19.818C164.346 20.0327 163.898 20.14 163.384 20.14ZM168.388 12.678H169.508L169.662 13.602H169.732C169.937 13.2753 170.194 13.042 170.502 12.902C170.819 12.7527 171.193 12.678 171.622 12.678H172.448V13.952H171.678C171.295 13.952 170.959 14.0313 170.67 14.19C170.381 14.3487 170.152 14.5633 169.984 14.834C169.816 15.1047 169.732 15.4173 169.732 15.772V20H168.388V12.678ZM176.055 18.908C176.457 18.908 176.811 18.81 177.119 18.614C177.427 18.418 177.67 18.1287 177.847 17.746C178.025 17.3633 178.113 16.892 178.113 16.332C178.113 15.7813 178.025 15.3147 177.847 14.932C177.67 14.54 177.427 14.2507 177.119 14.064C176.811 13.868 176.457 13.77 176.055 13.77C175.654 13.77 175.299 13.868 174.991 14.064C174.683 14.2507 174.441 14.54 174.263 14.932C174.086 15.3147 173.997 15.7813 173.997 16.332C173.997 16.892 174.086 17.3633 174.263 17.746C174.441 18.1287 174.683 18.418 174.991 18.614C175.299 18.81 175.654 18.908 176.055 18.908ZM175.817 20.14C175.201 20.14 174.655 19.9953 174.179 19.706C173.703 19.4073 173.33 18.9733 173.059 18.404C172.789 17.8253 172.653 17.1347 172.653 16.332C172.653 15.5293 172.789 14.8433 173.059 14.274C173.33 13.7047 173.703 13.2753 174.179 12.986C174.655 12.6873 175.201 12.538 175.817 12.538C176.321 12.538 176.76 12.6313 177.133 12.818C177.507 12.9953 177.81 13.2333 178.043 13.532H178.113V10.2H179.457V20H178.337L178.183 19.062H178.113C177.861 19.398 177.544 19.664 177.161 19.86C176.779 20.0467 176.331 20.14 175.817 20.14ZM183.528 20.14C182.977 20.14 182.492 20.0467 182.072 19.86C181.661 19.6733 181.325 19.4167 181.064 19.09C180.812 18.7633 180.644 18.39 180.56 17.97H182.002C182.086 18.2593 182.263 18.488 182.534 18.656C182.814 18.824 183.145 18.908 183.528 18.908C184.051 18.908 184.443 18.824 184.704 18.656C184.975 18.4787 185.11 18.25 185.11 17.97C185.11 17.7553 185.04 17.5873 184.9 17.466C184.76 17.3353 184.578 17.2373 184.354 17.172C184.139 17.0973 183.845 17.0227 183.472 16.948C182.921 16.8267 182.464 16.7007 182.1 16.57C181.745 16.43 181.437 16.206 181.176 15.898C180.924 15.59 180.798 15.17 180.798 14.638C180.798 14.2553 180.905 13.9053 181.12 13.588C181.335 13.2613 181.647 13.0047 182.058 12.818C182.478 12.6313 182.968 12.538 183.528 12.538C184.293 12.538 184.923 12.7153 185.418 13.07C185.922 13.4153 186.239 13.896 186.37 14.512H184.928C184.863 14.372 184.769 14.246 184.648 14.134C184.536 14.022 184.387 13.9333 184.2 13.868C184.013 13.8027 183.789 13.77 183.528 13.77C183.08 13.77 182.739 13.8493 182.506 14.008C182.282 14.1573 182.17 14.3673 182.17 14.638C182.17 14.862 182.24 15.0393 182.38 15.17C182.529 15.3007 182.711 15.4033 182.926 15.478C183.15 15.5527 183.458 15.6367 183.85 15.73C184.401 15.8513 184.849 15.9773 185.194 16.108C185.549 16.2387 185.852 16.4533 186.104 16.752C186.356 17.0507 186.482 17.4567 186.482 17.97C186.482 18.362 186.37 18.726 186.146 19.062C185.931 19.3887 185.6 19.65 185.152 19.846C184.704 20.042 184.163 20.14 183.528 20.14Z" fill="white"></path><path d="M191.448 12.748V11.418H192.792C192.969 11.418 193.105 11.3713 193.198 11.278C193.301 11.1753 193.352 11.0353 193.352 10.858V10.2H194.85V20H193.352V12.748H191.448ZM201.324 12.678L203.396 18.012H203.466L205.552 12.678H207.484V20H206.126V14.638H206.056L203.956 20H202.906L200.806 14.638H200.736V20H199.392V12.678H201.324ZM212.133 20.14C211.442 20.14 210.835 19.9907 210.313 19.692C209.799 19.3933 209.398 18.964 209.109 18.404C208.829 17.8347 208.689 17.144 208.689 16.332C208.689 15.5387 208.829 14.8573 209.109 14.288C209.398 13.7093 209.799 13.2753 210.313 12.986C210.826 12.6873 211.419 12.538 212.091 12.538C212.791 12.538 213.397 12.706 213.911 13.042C214.424 13.3687 214.811 13.798 215.073 14.33C215.343 14.862 215.479 15.422 215.479 16.01C215.479 16.15 215.469 16.2853 215.451 16.416C215.441 16.5467 215.427 16.654 215.409 16.738H210.061C210.089 17.1953 210.191 17.5873 210.369 17.914C210.555 18.2313 210.798 18.4787 211.097 18.656C211.395 18.824 211.741 18.908 212.133 18.908C212.534 18.908 212.87 18.8287 213.141 18.67C213.411 18.5113 213.645 18.278 213.841 17.97H215.283C215.133 18.418 214.914 18.8053 214.625 19.132C214.345 19.4493 213.99 19.6967 213.561 19.874C213.141 20.0513 212.665 20.14 212.133 20.14ZM214.093 15.632C214.046 15.2587 213.934 14.932 213.757 14.652C213.579 14.3627 213.346 14.1433 213.057 13.994C212.777 13.8447 212.455 13.77 212.091 13.77C211.54 13.77 211.083 13.938 210.719 14.274C210.364 14.6007 210.145 15.0533 210.061 15.632H214.093ZM219.77 20.14C219.079 20.14 218.472 19.9907 217.95 19.692C217.436 19.3933 217.035 18.964 216.746 18.404C216.466 17.8347 216.326 17.144 216.326 16.332C216.326 15.5293 216.466 14.8433 216.746 14.274C217.035 13.7047 217.436 13.2753 217.95 12.986C218.472 12.6873 219.079 12.538 219.77 12.538C220.302 12.538 220.778 12.6313 221.198 12.818C221.627 12.9953 221.986 13.252 222.276 13.588C222.565 13.9147 222.78 14.3113 222.92 14.778H221.52C221.333 14.442 221.095 14.19 220.806 14.022C220.516 13.854 220.171 13.77 219.77 13.77C219.359 13.77 218.995 13.868 218.678 14.064C218.36 14.26 218.113 14.554 217.936 14.946C217.758 15.3287 217.67 15.7907 217.67 16.332C217.67 16.8827 217.758 17.354 217.936 17.746C218.113 18.1287 218.36 18.418 218.678 18.614C218.995 18.81 219.359 18.908 219.77 18.908C220.171 18.908 220.516 18.824 220.806 18.656C221.095 18.4787 221.333 18.2267 221.52 17.9H222.92C222.78 18.3573 222.565 18.754 222.276 19.09C221.986 19.426 221.627 19.6873 221.198 19.874C220.778 20.0513 220.302 20.14 219.77 20.14ZM222.982 13.938V12.678H229.198V13.938H226.748V20H225.39V13.938H222.982ZM232.815 20.14C232.124 20.14 231.518 19.9907 230.995 19.692C230.482 19.3933 230.08 18.964 229.791 18.404C229.511 17.8347 229.371 17.144 229.371 16.332C229.371 15.5293 229.511 14.8433 229.791 14.274C230.08 13.7047 230.482 13.2753 230.995 12.986C231.518 12.6873 232.124 12.538 232.815 12.538C233.506 12.538 234.108 12.6873 234.621 12.986C235.144 13.2753 235.55 13.7047 235.839 14.274C236.128 14.8433 236.273 15.5293 236.273 16.332C236.273 17.144 236.128 17.8347 235.839 18.404C235.55 18.964 235.144 19.3933 234.621 19.692C234.108 19.9907 233.506 20.14 232.815 20.14ZM232.815 18.908C233.226 18.908 233.59 18.81 233.907 18.614C234.224 18.418 234.472 18.1287 234.649 17.746C234.826 17.354 234.915 16.8827 234.915 16.332C234.915 15.7907 234.826 15.324 234.649 14.932C234.472 14.54 234.224 14.2507 233.907 14.064C233.59 13.868 233.226 13.77 232.815 13.77C232.414 13.77 232.054 13.868 231.737 14.064C231.42 14.2507 231.168 14.54 230.981 14.932C230.804 15.324 230.715 15.7907 230.715 16.332C230.715 16.8827 230.804 17.354 230.981 17.746C231.168 18.1287 231.42 18.418 231.737 18.614C232.054 18.81 232.414 18.908 232.815 18.908Z" fill="white" fill-opacity="0.5"></path></g><defs><clipPath id="bgblur_0_1689_3274_clip_path" transform="translate(58.9 58.9)"><rect width="249" height="30" rx="15"></rect></clipPath><clipPath id="clip1_1689_3274"><rect width="14" height="14" fill="white" transform="translate(12 8)"></rect></clipPath></defs></svg> 