<?xml version="1.0" encoding="UTF-8"?> <svg xmlns="http://www.w3.org/2000/svg" width="141" height="41" viewBox="0 0 141 41" fill="none"><path fill-rule="evenodd" clip-rule="evenodd" d="M129.034 41C127.319 41 125.743 40.7186 124.307 40.1559C122.872 39.5529 121.635 38.7289 120.598 37.6838C119.601 36.5985 118.803 35.2922 118.205 33.7647C117.646 32.2373 117.367 30.5289 117.367 28.6397V15.0735L109.054 15.1004C106.502 15.1004 104.507 16.0783 103.071 17.4851C101.675 18.892 100.977 20.8013 100.977 23.2131V33.7645H111.448V40.3969L87.0942 40.3969V33.7626H79.9148V28.0366V27.1321H72.1369C69.7695 27.1321 66.7522 28.1586 66.7522 31.1007C66.7522 33.5574 68.7792 35.1289 71.2954 35.333C76.0104 35.7156 77.8931 34.7557 79.1 34.1403C79.4013 33.9867 79.6605 33.8545 79.9111 33.7701V37.9472C76.3946 40.6515 73.8717 40.9998 70.9403 40.9998C67.1909 40.9998 64.359 40.0954 62.4444 38.2866C60.5299 36.4777 59.5726 34.066 59.5726 31.0513C59.5726 28.0366 60.5697 25.6248 62.5641 23.816C64.5983 22.0071 67.7892 21.1027 72.1369 21.1027H79.9148V19.5954C79.9148 18.2287 79.3564 17.0429 78.2396 16.038C77.1227 14.9929 75.5871 14.4704 73.6327 14.4704C71.9574 14.4704 70.6212 14.8321 69.624 15.5557C68.6668 16.2792 68.1083 17.0228 67.9488 17.7866H60.7692C60.9287 16.5003 61.2877 15.2743 61.8461 14.1086C62.4444 12.9027 63.2621 11.8375 64.2992 10.913C65.3761 9.98852 66.7123 9.24489 68.3078 8.68215C69.9032 8.1194 71.7779 7.83803 73.9318 7.83803C78.1199 7.83803 81.3507 8.94342 83.6243 11.1542C85.9377 13.365 87.0944 16.2792 87.0944 19.8968V33.7645H93.7978V15.0734H87.5157V8.441H98.5842L99.7808 12.6616H100.678C101.277 11.1743 102.294 10.1091 103.73 9.466C105.166 8.78267 106.641 8.441 108.157 8.441L117.367 8.44117L118.564 0H124.547V8.44117H136.214V15.0735H124.547V8.4416L117.367 8.44117L117.368 15.0759H124.547V28.6397C124.547 30.6093 124.946 32.0564 125.743 32.9809C126.581 33.9054 127.678 34.3676 129.034 34.3676C130.39 34.3676 131.487 34.026 132.325 33.3426C133.162 32.6191 133.661 31.3529 133.82 29.5441H141C141 31.2725 140.701 32.8402 140.103 34.2471C139.504 35.6539 138.667 36.8598 137.59 37.8647C136.513 38.8696 135.236 39.6534 133.761 40.2162C132.325 40.7387 130.749 41 129.034 41ZM39.1649 23.816L29.2929 8.441H37.6691L42.9342 17.4851L43.8316 20.8013H44.7291L45.6265 17.4851L50.8317 8.441H59.208L49.336 23.816L59.8063 40.3969H51.43L45.6265 30.4484L44.7291 27.1322H43.8316L42.9342 30.4484L37.0708 40.3969H28.6946L39.1649 23.816ZM3.29065 37.6836C5.48443 39.8944 8.37621 40.9998 11.966 40.9998C13.6413 40.9998 15.1769 40.7184 16.5729 40.1557C17.969 39.5528 19.1257 38.7287 20.0431 37.6836H20.3422L20.9405 40.3969H27.2227V8.441H20.0431V27.7351C20.0431 28.6998 19.8636 29.6042 19.5046 30.4484C19.1456 31.2523 18.667 31.9557 18.0687 32.5586C17.4704 33.1214 16.7724 33.5635 15.9746 33.8851C15.1769 34.2067 14.3393 34.3675 13.4618 34.3675C11.6669 34.3675 10.1711 33.8047 8.97451 32.6792C7.77791 31.5135 7.17961 29.8655 7.17961 27.7351V8.441H0V28.0366C0 32.2572 1.09688 35.4729 3.29065 37.6836Z" fill="white"></path></svg> 