<?xml version="1.0" encoding="UTF-8"?> <svg xmlns="http://www.w3.org/2000/svg" width="102" height="54" viewBox="0 0 102 54" fill="none"> <g clip-path="url(#clip0_3825_66128)"> <path d="M50.9995 48.6335C24.2203 48.6335 6.31111 39.9131 6.31111 26.9998C6.31111 14.0869 24.2203 5.36658 50.9995 5.36658C77.7787 5.36658 95.6885 14.0869 95.6885 26.9998C95.6885 39.9131 77.7787 48.6335 50.9995 48.6335V48.6335ZM50.9995 4.86298C23.88 4.86298 5.7996 13.7516 5.7996 26.9998C5.7996 40.2488 23.88 49.1365 50.9995 49.1365C78.1197 49.1365 96.1999 40.2488 96.1999 26.9998C96.1999 13.7516 78.1197 4.86298 50.9995 4.86298V4.86298ZM50.9995 51.4846C22.1735 51.4846 2.89981 41.5901 2.89981 26.9998C2.89981 12.2423 22.1735 2.51584 50.9995 2.51584C79.996 2.51584 99.1 12.2423 99.1 26.9998C99.1 41.5901 79.996 51.4846 50.9995 51.4846ZM50.9995 0.000570857C20.2978 0.000570857 0 10.9006 0 26.9998C0 42.9319 20.2978 54 50.9995 54C81.8723 54 102 42.9319 102 26.9998C102 10.9006 81.8723 0.000570857 50.9995 0.000570857V0.000570857ZM73.0028 18.1118H78.1197V24.9871L83.067 18.1118H88.6952L82.2134 26.497L88.8656 35.05H82.725L78.1197 28.1741V35.05H73.0028V18.1118ZM52.706 18.1118H57.8224L60.7225 28.1741L63.6221 18.1118H68.7388L71.1269 35.05H66.3503L65.1569 25.9938L62.4281 35.05H59.0167L56.287 25.9938L55.0928 35.05H50.3175L52.706 18.1118ZM48.4412 18.1118V35.05H43.4953V22.137H40.2543V26.9998C40.2543 29.1805 40.0833 31.8636 38.7191 33.373C37.3545 35.05 34.7963 35.5531 31.8963 35.05V30.857C34.6249 31.3606 35.3078 30.3539 35.3078 26.9998V18.1118H48.4412ZM14.4987 18.1118H19.6152V24.3169H25.0734V18.1118H30.1907V35.05H25.0734V28.3416H19.6152V35.05H14.4987V18.1118" fill="#AFAFB5"></path> </g> <defs> <clipPath id="clip0_3825_66128"> <rect width="102" height="54" fill="white"></rect> </clipPath> </defs> </svg> 