<?xml version="1.0" encoding="UTF-8"?> <svg xmlns="http://www.w3.org/2000/svg" width="145" height="44" viewBox="0 0 145 44" fill="none"> <g clip-path="url(#clip0_3825_66067)"> <path d="M34.426 36.1613L30.3346 29.5477L26.33 36.1613H21.5375L27.6951 26.2009L21.4219 16.959H26.4289L30.4503 23.1311L34.2816 16.959H39.0743L32.9 26.5059L39.2432 36.1613H34.426Z" fill="#AFAFB5"></path> <path d="M54.7583 29.532C54.7583 33.7456 51.4958 36.3542 47.223 36.3542C43.4576 36.3542 40.2858 34.3476 39.9766 29.9333H44.2452C44.5092 31.7351 45.9899 32.5097 47.6066 32.5097C49.6193 32.5097 50.4936 31.1974 50.4936 29.4959C50.4936 27.7182 49.145 26.6107 47.2644 26.6107C46.6635 26.5785 46.0647 26.6993 45.5264 26.9609C44.9884 27.2227 44.5298 27.6165 44.1958 28.1034H40.092L41.4447 16.9473H54.2675L53.855 20.6272H44.6618L44.2989 24.3031C44.2989 24.3031 45.2598 23.1996 48.1798 23.1996C51.6939 23.1996 54.779 25.4951 54.779 29.5441" fill="#AFAFB5"></path> <path d="M40.2949 14.4091C38.1379 6.23861 31.3039 0.5 17.1243 0.5H0L2.32613 15.7895C4.07487 29.5902 9.49839 34.0286 19.0958 35.662C19.1404 35.6743 19.1874 35.6757 19.2327 35.6658C19.278 35.6562 19.32 35.6357 19.3552 35.6061C19.3903 35.5768 19.4174 35.5394 19.4341 35.4972C19.4507 35.4552 19.4563 35.4096 19.4505 35.365C19.45 35.3053 19.4313 35.2473 19.3968 35.1978C19.3623 35.1486 19.3135 35.1104 19.2566 35.0881C12.769 32.4316 12.0307 23.7152 10.645 14.9669L9.57262 7.9963H19.3474C28.3591 7.9963 35.3168 7.85987 39.7217 14.6258C39.7515 14.6752 39.7934 14.7165 39.8438 14.746C39.8944 14.7754 39.9516 14.7921 40.0103 14.7943C40.0504 14.7938 40.0896 14.7856 40.1262 14.7701C40.1629 14.7547 40.196 14.7323 40.2237 14.7043C40.2511 14.6763 40.2728 14.6432 40.2873 14.607C40.3015 14.5708 40.3084 14.5321 40.3073 14.4933C40.3119 14.4654 40.3119 14.437 40.3073 14.4091" fill="#AFAFB5"></path> <path d="M78.1503 26.1018C78.1503 26.1018 79.1731 36.7403 68.0868 36.7403C62.2344 36.7403 57.7266 32.3981 57.7266 26.499C57.7266 20.6 62.2633 16.2578 68.2601 16.2578C72.8877 16.2578 76.5708 18.8382 77.9772 22.8111H75.3416C74.7178 21.4962 73.7121 20.3875 72.4488 19.6217C71.1853 18.8559 69.7194 18.4663 68.2312 18.5011C63.6243 18.5011 60.2135 21.9041 60.2135 26.5553C60.2135 31.0618 63.4512 34.5491 68.2312 34.5491C72.2526 34.5491 75.3129 32.0571 75.6551 28.1282H67.8187V26.1217L78.1503 26.1018Z" fill="#AFAFB5"></path> <path d="M90.7408 20.5446V22.9524C90.3998 22.9154 90.0571 22.8967 89.7138 22.8961C86.3278 22.8961 83.9768 25.027 83.9768 29.0321V36.3398H81.5312V20.7933H83.9605V24.2888C84.9297 21.9571 86.8723 20.4844 89.7345 20.4844C90.0681 20.4847 90.4012 20.5035 90.7326 20.5406" fill="#AFAFB5"></path> <path d="M108.375 28.6059C108.361 30.1953 107.864 31.7453 106.947 33.0604C106.03 34.3757 104.733 35.3975 103.22 35.9969C101.707 36.5965 100.045 36.747 98.4446 36.4295C96.8441 36.112 95.3757 35.3408 94.2246 34.213C93.0734 33.0851 92.291 31.6511 91.9758 30.0914C91.6606 28.5318 91.8269 26.9162 92.4534 25.4482C93.0801 23.9804 94.1391 22.7256 95.4971 21.8422C96.8552 20.9587 98.4517 20.486 100.085 20.4836C101.184 20.4654 102.275 20.6636 103.293 21.066C104.311 21.4685 105.235 22.0669 106.009 22.8256C106.784 23.5843 107.392 24.4873 107.799 25.4806C108.205 26.474 108.402 27.5369 108.375 28.6059ZM94.2781 28.6059C94.2781 32.0411 96.8435 34.4848 100.085 34.4848C103.327 34.4848 105.921 32.0411 105.921 28.6059C105.921 25.1707 103.323 22.7268 100.085 22.7268C96.8476 22.7268 94.2781 25.1346 94.2781 28.6059Z" fill="#AFAFB5"></path> <path d="M125.134 20.7953V36.3418H122.692V33.2596C122.178 34.3093 121.36 35.1898 120.339 35.793C119.317 36.3962 118.137 36.6956 116.943 36.6546C113.367 36.6546 111.227 34.4516 111.227 30.6593V20.7953H113.652V30.2579C113.652 33.039 115 34.4877 117.636 34.4877C120.832 34.4877 122.676 32.2724 122.676 28.8093V20.7832L125.134 20.7953Z" fill="#AFAFB5"></path> <path d="M144.965 28.5936C144.965 33.3009 141.785 36.6999 137.368 36.6999C136.107 36.7266 134.863 36.4186 133.769 35.8091C132.675 35.1997 131.772 34.3118 131.157 33.2406V43.4738H128.711V20.7963H131.157V24.0066C131.77 22.9234 132.674 22.023 133.774 21.4029C134.874 20.7829 136.126 20.4662 137.397 20.4873C141.785 20.4873 144.965 23.8622 144.965 28.5976V28.5936ZM142.354 28.5976C142.354 25.1906 140.082 22.7185 136.84 22.7185C133.598 22.7185 131.091 25.1624 131.091 28.5976C131.091 32.0328 133.565 34.4767 136.84 34.4767C140.115 34.4767 142.354 32.0328 142.354 28.5976Z" fill="#AFAFB5"></path> </g> <defs> <clipPath id="clip0_3825_66067"> <rect width="145" height="43" fill="white" transform="translate(0 0.5)"></rect> </clipPath> </defs> </svg> 