<?xml version="1.0" encoding="UTF-8"?> <svg xmlns="http://www.w3.org/2000/svg" width="171" height="24" viewBox="0 0 171 24" fill="none"> <path d="M48.9219 23.1291H53.6136V5.16329H59.5858V0.869141H48.9219V23.1291Z" fill="#AFAFB5"></path> <path d="M105.664 5.16329H110.356V23.1291H115.052V5.16329H119.744V0.869141H105.664V5.16329Z" fill="#AFAFB5"></path> <path d="M0 0.869141V23.1247H4.59114V17.475H10.5633L14.0204 14.2555V4.08864L10.7233 0.869141H0ZM9.32404 13.1808H4.59114V5.16775H9.32862V13.1808H9.32404Z" fill="#AFAFB5"></path> <path d="M20.0047 0.869141L16.7031 4.08864V19.9096L20.0047 23.1291H28.2953L31.6015 19.9096V4.08864L28.2953 0.869141H20.0047ZM26.9006 18.835H21.3994V5.16329H26.9006V18.835Z" fill="#AFAFB5"></path> <path d="M39.2588 5.16329H45.9123V0.869141H37.8641L34.5625 4.08864V19.9096L37.8641 23.1291H45.9489V18.835H39.2588V5.16329Z" fill="#AFAFB5"></path> <path d="M64.3094 0.869141L61.0078 4.08864V19.9096L64.3094 23.1291H72.6L75.9062 19.9096V4.08864L72.6 0.869141H64.3094ZM71.2098 18.835H65.7087V5.16329H71.2098V18.835Z" fill="#AFAFB5"></path> <path d="M122.188 0.869141V23.1247H126.779V17.475H132.751L136.208 14.2555V4.08864L132.911 0.869141H122.188ZM131.516 13.1808H126.779V5.16775H131.516V13.1808Z" fill="#AFAFB5"></path> <path d="M83.5667 5.16329H90.2248V0.869141H82.1766L78.875 4.08864V19.9096L82.1766 23.1291H90.2614V18.835H83.5667V5.16329Z" fill="#AFAFB5"></path> <path d="M97.2119 5.16329H103.865V0.869141H95.8172L92.5156 4.08864V19.9096L95.8172 23.1291H103.902V18.835H97.2119V5.16329Z" fill="#AFAFB5"></path> <path d="M167.618 11.7182L170.957 0.869141H166.251L163.713 9.27907H162.867L160.329 0.869141H155.624L158.971 11.7628L155.578 23.1247H160.22L162.913 14.3491H163.668L166.365 23.1247H171.002L167.618 11.7182Z" fill="#AFAFB5"></path> <path d="M149.795 23.1247H154.519L149.809 0.869141H141.788L137.078 23.1247H141.688L142.753 17.8183H148.734L149.795 23.1247ZM143.59 13.6401L145.291 5.16329H146.187L147.888 13.6401H143.59Z" fill="#AFAFB5"></path> </svg> 